<svg xmlns="http://www.w3.org/2000/svg" viewBox="0 0 540 320">
<defs>
 <linearGradient id="bg" x1="0" y1="0" x2="1" y2="1"><stop stop-color="#02060a"/><stop offset="1" stop-color="#071116"/></linearGradient>
 <filter id="glow"><feGaussianBlur stdDeviation="7" result="b"/><feMerge><feMergeNode in="b"/><feMergeNode in="SourceGraphic"/></feMerge></filter>
</defs>
<rect width="540" height="320" rx="28" fill="url(#bg)"/>
<rect x="18" y="18" width="504" height="284" rx="24" fill="none" stroke="#39f6ff" stroke-width="3" opacity=".9" filter="url(#glow)"/>
<rect x="42" y="66" width="456" height="170" rx="18" fill="#03080d" stroke="#39f6ff" stroke-width="2" opacity=".96"/>
<rect x="60" y="84" width="118" height="134" rx="12" fill="#061017" stroke="#39f6ff" stroke-width="1.5"/>
<circle cx="119" cy="151" r="39" fill="none" stroke="#9dfcff" stroke-width="5"/>
<path d="M95 153c18-35 57-20 48 6-8 22-43 23-50 1" fill="none" stroke="#9dfcff" stroke-width="5" stroke-linecap="round"/>
<path d="M105 139c13 19 28 27 43 18" fill="none" stroke="#9dfcff" stroke-width="5" stroke-linecap="round"/>
<text x="205" y="132" fill="#f4ffff" font-family="Arial,sans-serif" font-size="30" font-weight="700">agent</text>
<text x="205" y="166" fill="#39f6ff" font-family="Arial,sans-serif" font-size="24">#007</text>
<rect x="205" y="188" width="190" height="5" rx="2.5" fill="#12343a"/>
<rect x="205" y="188" width="112" height="5" rx="2.5" fill="#39f6ff"/>
<circle cx="205" cy="210" r="6" fill="#39f6ff"/><circle cx="225" cy="210" r="6" fill="#39f6ff" opacity=".65"/><circle cx="245" cy="210" r="6" fill="#39f6ff" opacity=".3"/>
<rect x="440" y="112" width="26" height="30" rx="5" fill="none" stroke="#39f6ff" stroke-width="4"/>
<path d="M446 112v-7a7 7 0 0 1 14 0v7" fill="none" stroke="#39f6ff" stroke-width="4"/>
</svg>