<svg xmlns="http://www.w3.org/2000/svg" viewBox="0 0 854 480">
<defs>
  <radialGradient id="bg" cx="50%" cy="48%" r="72%">
    <stop offset="0" stop-color="#0b2028"/><stop offset=".58" stop-color="#050b10"/><stop offset="1" stop-color="#020406"/>
  </radialGradient>
  <linearGradient id="frame" x1="0" y1="0" x2="1" y2="1">
    <stop stop-color="#39f6ff" stop-opacity=".55"/><stop offset=".5" stop-color="#39f6ff" stop-opacity=".12"/><stop offset="1" stop-color="#39f6ff" stop-opacity=".35"/>
  </linearGradient>
</defs>
<rect width="854" height="480" fill="url(#bg)"/>
<g fill="none" stroke="#39f6ff" stroke-opacity=".055" stroke-width="1">
  <path d="M0 80H854M0 160H854M0 240H854M0 320H854M0 400H854"/>
  <path d="M106 0V480M213 0V480M320 0V480M427 0V480M534 0V480M641 0V480M748 0V480"/>
</g>
<rect x="38" y="34" width="778" height="412" rx="28" fill="none" stroke="url(#frame)" stroke-width="2"/>
<rect x="50" y="46" width="754" height="388" rx="22" fill="none" stroke="#39f6ff" stroke-opacity=".07"/>
<ellipse cx="427" cy="242" rx="310" ry="165" fill="none" stroke="#39f6ff" stroke-opacity=".055"/>
<ellipse cx="427" cy="242" rx="220" ry="118" fill="none" stroke="#39f6ff" stroke-opacity=".04"/>
<circle cx="427" cy="242" r="2.5" fill="#39f6ff" opacity=".22"/>
</svg>