<svg xmlns="http://www.w3.org/2000/svg" viewBox="0 0 340 200"><rect x="3" y="3" width="334" height="194" rx="24" fill="#07141a" stroke="#39f6ff" stroke-width="3"/><rect x="10" y="10" width="320" height="180" rx="18" fill="none" stroke="#39f6ff" stroke-opacity=".16"/><circle cx="170" cy="100" r="58" fill="#0c2c34" stroke="#39f6ff" stroke-width="3"/><path d="M112 100h116M170 42c18 17 27 37 27 58s-9 41-27 58M170 42c-18 17-27 37-27 58s9 41 27 58M119 73c30 12 72 12 102 0M119 127c30-12 72-12 102 0" fill="none" stroke="#39f6ff" stroke-width="2.5" stroke-linecap="round"/><circle cx="170" cy="42" r="5" fill="#39f6ff"/><circle cx="228" cy="100" r="5" fill="#39f6ff"/></svg>