<svg xmlns="http://www.w3.org/2000/svg" viewBox="0 0 340 200"><rect x="3" y="3" width="334" height="194" rx="24" fill="#07141a" stroke="#39f6ff" stroke-width="3"/><rect x="10" y="10" width="320" height="180" rx="18" fill="none" stroke="#39f6ff" stroke-opacity=".16"/><path d="M72 48h196a18 18 0 0 1 18 18v68a18 18 0 0 1-18 18H145l-40 28v-28H72a18 18 0 0 1-18-18V66a18 18 0 0 1 18-18z" fill="#0c2c34" stroke="#39f6ff" stroke-width="3"/><rect x="82" y="80" width="142" height="7" rx="3.5" fill="#d8fbff" opacity=".85"/><rect x="82" y="101" width="112" height="6" rx="3" fill="#6e9da5" opacity=".7"/><rect x="82" y="121" width="132" height="6" rx="3" fill="#39f6ff" opacity=".7"/></svg>